<svg width="141" height="30" viewBox="0 0 141 30" fill="none" xmlns="http://www.w3.org/2000/svg">
<path d="M0 29.5669V0H19.5809V5.15399H6.14385V12.1992H18.5734V17.3532H6.14385V24.4129H19.6376V29.5669H0Z" fill="white"/>
<path d="M37.9308 14.9856V19.8653H24.6783V14.9856H37.9308Z" fill="white"/>
<path d="M54.6739 7.39172V12.0115H41.549V7.39172H54.6739ZM44.5287 2.07892H50.5733V22.7526C50.5733 23.3205 50.6584 23.7632 50.8287 24.0808C50.9989 24.3888 51.2354 24.6054 51.5381 24.7305C51.8503 24.8556 52.2097 24.9182 52.6165 24.9182C52.9003 24.9182 53.1841 24.8941 53.4678 24.846C53.7516 24.7883 53.9692 24.7449 54.1205 24.7161L55.0712 29.2926C54.7685 29.3888 54.3428 29.4995 53.7942 29.6246C53.2455 29.7594 52.5787 29.8412 51.7935 29.8701C50.3368 29.9278 49.0598 29.7305 47.9625 29.2782C46.8747 28.8258 46.0281 28.1232 45.4227 27.1704C44.8173 26.2175 44.5193 25.0144 44.5287 23.5611V2.07892Z" fill="white"/>
<path d="M58.6114 29.5669V7.39172H64.4714V11.2608H64.6985C65.0957 9.8845 65.7626 8.84504 66.6991 8.14245C67.6356 7.43022 68.714 7.07411 69.9342 7.07411C70.2369 7.07411 70.5633 7.09336 70.9133 7.13186C71.2632 7.17036 71.5707 7.22329 71.8355 7.29066V12.7478C71.5518 12.6612 71.1592 12.5842 70.6579 12.5168C70.1565 12.4495 69.6977 12.4158 69.2815 12.4158C68.3923 12.4158 67.5977 12.6131 66.8978 13.0077C66.2072 13.3927 65.6586 13.9317 65.2518 14.6246C64.8545 15.3176 64.6559 16.1165 64.6559 17.0212V29.5669H58.6114Z" fill="white"/>
<path d="M80.5512 29.9856C79.1606 29.9856 77.9215 29.7401 76.8336 29.2493C75.7458 28.7488 74.885 28.0125 74.2512 27.0404C73.6269 26.0587 73.3148 24.8364 73.3148 23.3734C73.3148 22.1415 73.537 21.1068 73.9816 20.2695C74.4262 19.4321 75.0316 18.7584 75.7978 18.2483C76.564 17.7382 77.4343 17.3532 78.4086 17.0934C79.3924 16.8335 80.4235 16.6506 81.5018 16.5448C82.7694 16.41 83.791 16.2849 84.5667 16.1694C85.3423 16.0443 85.9052 15.8614 86.2551 15.6208C86.6051 15.3802 86.7801 15.0241 86.7801 14.5525V14.4658C86.7801 13.5515 86.4964 12.8441 85.9288 12.3436C85.3707 11.8431 84.5761 11.5929 83.545 11.5929C82.4572 11.5929 81.5917 11.8383 80.9484 12.3292C80.3052 12.8104 79.8795 13.4167 79.6714 14.1482L74.081 13.6862C74.3647 12.3388 74.9228 11.1742 75.7553 10.1925C76.5877 9.20115 77.6613 8.44081 78.9762 7.91145C80.3005 7.37247 81.8329 7.10298 83.5734 7.10298C84.7842 7.10298 85.943 7.24735 87.0497 7.53609C88.1659 7.82483 89.1544 8.27238 90.0152 8.87873C90.8855 9.48508 91.5713 10.2647 92.0727 11.2175C92.574 12.1607 92.8247 13.2916 92.8247 14.6102V29.5669H87.0923V26.4918H86.922C86.572 27.1848 86.1038 27.796 85.5173 28.3253C84.9308 28.845 84.2261 29.2541 83.4032 29.5525C82.5802 29.8412 81.6295 29.9856 80.5512 29.9856ZM82.2822 25.7411C83.1714 25.7411 83.9565 25.563 84.6376 25.2069C85.3187 24.8412 85.8531 24.3503 86.241 23.7344C86.6288 23.1184 86.8227 22.4206 86.8227 21.641V19.2878C86.6335 19.4129 86.3734 19.5284 86.0423 19.6343C85.7207 19.7305 85.3565 19.8219 84.9498 19.9086C84.543 19.9856 84.1363 20.0577 83.7295 20.1251C83.3228 20.1829 82.9538 20.2358 82.6228 20.2839C81.9133 20.3898 81.2937 20.5582 80.764 20.7892C80.2343 21.0202 79.8228 21.333 79.5295 21.7276C79.2363 22.1126 79.0897 22.5938 79.0897 23.1713C79.0897 24.0087 79.3877 24.6487 79.9836 25.0914C80.589 25.5245 81.3552 25.7411 82.2822 25.7411Z" fill="white"/>
<path d="M103.559 16.7469V29.5669H97.5142V7.39172H103.275V11.3041H103.53C104.013 10.0144 104.822 8.99423 105.957 8.2435C107.092 7.48316 108.468 7.10298 110.086 7.10298C111.599 7.10298 112.919 7.43985 114.044 8.11357C115.17 8.78729 116.045 9.74976 116.669 11.001C117.294 12.2425 117.606 13.7247 117.606 15.4475V29.5669H111.561V16.5448C111.571 15.1877 111.23 14.129 110.54 13.3686C109.849 12.5987 108.898 12.2137 107.688 12.2137C106.874 12.2137 106.155 12.3917 105.531 12.7478C104.916 13.1039 104.434 13.6237 104.084 14.307C103.743 14.9808 103.568 15.794 103.559 16.7469Z" fill="white"/>
<path d="M140.503 13.7151L134.97 14.0616C134.875 13.5804 134.672 13.1473 134.36 12.7623C134.047 12.3677 133.636 12.0549 133.125 11.8239C132.624 11.5833 132.023 11.4629 131.323 11.4629C130.387 11.4629 129.597 11.6651 128.954 12.0693C128.31 12.4639 127.989 12.9933 127.989 13.6574C127.989 14.1867 128.197 14.6343 128.613 15C129.029 15.3657 129.743 15.6593 130.756 15.8807L134.7 16.6891C136.819 17.1319 138.399 17.8441 139.439 18.8258C140.48 19.8075 141 21.0972 141 22.6949C141 24.1482 140.579 25.4235 139.737 26.5207C138.905 27.6179 137.76 28.4745 136.303 29.0905C134.856 29.6968 133.187 30 131.295 30C128.41 30 126.111 29.3888 124.399 28.1665C122.696 26.9346 121.698 25.2599 121.405 23.1424L127.35 22.8248C127.53 23.7199 127.965 24.4033 128.656 24.8749C129.346 25.3369 130.231 25.5679 131.309 25.5679C132.368 25.5679 133.22 25.3609 133.863 24.9471C134.516 24.5236 134.847 23.9798 134.856 23.3157C134.847 22.7575 134.615 22.3003 134.161 21.9442C133.707 21.5784 133.007 21.2993 132.061 21.1068L128.287 20.3417C126.158 19.9086 124.574 19.1578 123.533 18.0895C122.502 17.0212 121.987 15.6593 121.987 14.0038C121.987 12.5794 122.365 11.3523 123.122 10.3224C123.888 9.29259 124.962 8.49856 126.343 7.94033C127.733 7.3821 129.36 7.10298 131.224 7.10298C133.976 7.10298 136.143 7.6949 137.722 8.87873C139.312 10.0626 140.239 11.6747 140.503 13.7151Z" fill="white"/>
<path d="M0 30V0H19.9422V5.22949H6.25723V12.3779H18.9162V17.6074H6.25723V24.7705H20V30H0Z" fill="#B8FF20"/>
</svg>
